<svg xmlns="http://www.w3.org/2000/svg" xmlns:xlink="http://www.w3.org/1999/xlink" width="500" zoomAndPan="magnify" viewBox="0 0 375 374.999991" height="500" preserveAspectRatio="xMidYMid meet" version="1.0"><defs><g/><clipPath id="a80905f44d"><path d="M 60.582031 129.75 L 121 129.75 L 121 191 L 60.582031 191 Z M 60.582031 129.75 " clip-rule="nonzero"/></clipPath><clipPath id="506cc04caf"><path d="M 253 184 L 314.082031 184 L 314.082031 245.25 L 253 245.25 Z M 253 184 " clip-rule="nonzero"/></clipPath></defs><g clip-path="url(#a80905f44d)"><path fill="#000000" d="M 63.074219 190.308594 L 60.582031 190.308594 L 60.582031 129.808594 L 120.996094 129.808594 L 120.996094 132.300781 L 63.074219 132.300781 Z M 63.074219 190.308594 " fill-opacity="1" fill-rule="nonzero"/></g><g clip-path="url(#506cc04caf)"><path fill="#000000" d="M 314.082031 245.195312 L 253.664062 245.195312 L 253.664062 242.699219 L 311.589844 242.699219 L 311.589844 184.695312 L 314.082031 184.695312 Z M 314.082031 245.195312 " fill-opacity="1" fill-rule="nonzero"/></g><g fill="#000000" fill-opacity="1"><g transform="translate(87.889708, 204.534875)"><g><path d="M 29.0625 -12.640625 C 29.0625 -10.828125 28.71875 -9.125 28.03125 -7.53125 C 27.34375 -5.9375 26.410156 -4.539062 25.234375 -3.34375 C 24.054688 -2.15625 22.675781 -1.21875 21.09375 -0.53125 C 19.519531 0.15625 17.828125 0.5 16.015625 0.5 C 14.203125 0.5 12.503906 0.15625 10.921875 -0.53125 C 9.347656 -1.21875 7.972656 -2.15625 6.796875 -3.34375 C 5.617188 -4.539062 4.6875 -5.9375 4 -7.53125 C 3.3125 -9.125 2.96875 -10.828125 2.96875 -12.640625 L 2.96875 -35.703125 L 8.203125 -35.703125 L 8.203125 -12.640625 C 8.203125 -11.566406 8.40625 -10.539062 8.8125 -9.5625 C 9.21875 -8.59375 9.769531 -7.726562 10.46875 -6.96875 C 11.175781 -6.21875 12.007812 -5.625 12.96875 -5.1875 C 13.925781 -4.75 14.941406 -4.53125 16.015625 -4.53125 C 17.085938 -4.53125 18.09375 -4.75 19.03125 -5.1875 C 19.976562 -5.625 20.800781 -6.21875 21.5 -6.96875 C 22.207031 -7.726562 22.757812 -8.59375 23.15625 -9.5625 C 23.5625 -10.539062 23.765625 -11.566406 23.765625 -12.640625 L 23.765625 -35.703125 L 29.0625 -35.703125 Z M 29.0625 -12.640625 "/></g></g></g><g fill="#000000" fill-opacity="1"><g transform="translate(125.346736, 204.534875)"><g><path d="M 26.640625 -10.015625 C 26.640625 -8.503906 26.335938 -7.101562 25.734375 -5.8125 C 25.128906 -4.519531 24.238281 -3.390625 23.0625 -2.421875 C 20.75 -0.472656 17.78125 0.5 14.15625 0.5 C 11.332031 0.5 8.78125 -0.078125 6.5 -1.234375 C 4.21875 -2.390625 2.535156 -3.941406 1.453125 -5.890625 L 5.9375 -8.203125 C 6.613281 -6.992188 7.679688 -6.0625 9.140625 -5.40625 C 10.597656 -4.757812 12.269531 -4.4375 14.15625 -4.4375 C 19.019531 -4.4375 21.453125 -6.296875 21.453125 -10.015625 C 21.453125 -10.722656 21.328125 -11.328125 21.078125 -11.828125 C 20.828125 -12.335938 20.445312 -12.8125 19.9375 -13.25 C 18.726562 -14.25 16.566406 -15.15625 13.453125 -15.96875 C 11.566406 -16.4375 9.96875 -16.953125 8.65625 -17.515625 C 7.351562 -18.085938 6.265625 -18.765625 5.390625 -19.546875 C 3.273438 -21.253906 2.21875 -23.519531 2.21875 -26.34375 C 2.21875 -27.75 2.492188 -29.0625 3.046875 -30.28125 C 3.597656 -31.507812 4.378906 -32.578125 5.390625 -33.484375 C 6.429688 -34.390625 7.644531 -35.066406 9.03125 -35.515625 C 10.425781 -35.972656 11.960938 -36.203125 13.640625 -36.203125 C 16.097656 -36.203125 18.359375 -35.734375 20.421875 -34.796875 C 22.484375 -33.859375 24.050781 -32.53125 25.125 -30.8125 L 21.046875 -28.296875 C 20.078125 -29.472656 18.953125 -30.304688 17.671875 -30.796875 C 16.398438 -31.285156 15.054688 -31.53125 13.640625 -31.53125 C 12.640625 -31.53125 11.71875 -31.359375 10.875 -31.015625 C 10.039062 -30.679688 9.335938 -30.28125 8.765625 -29.8125 C 8.296875 -29.40625 7.953125 -28.910156 7.734375 -28.328125 C 7.515625 -27.742188 7.40625 -27.113281 7.40625 -26.4375 C 7.40625 -26 7.472656 -25.550781 7.609375 -25.09375 C 7.742188 -24.644531 8.0625 -24.175781 8.5625 -23.6875 C 9.0625 -23.207031 9.796875 -22.738281 10.765625 -22.28125 C 11.742188 -21.832031 13.070312 -21.390625 14.75 -20.953125 C 16.769531 -20.441406 18.46875 -19.894531 19.84375 -19.3125 C 21.21875 -18.726562 22.375 -18.03125 23.3125 -17.21875 C 25.53125 -15.40625 26.640625 -13.003906 26.640625 -10.015625 Z M 26.640625 -10.015625 "/></g></g></g><g fill="#000000" fill-opacity="1"><g transform="translate(160.085197, 204.534875)"><g><path d="M 24.625 -35.703125 L 24.625 -30.96875 L 8.0625 -30.96875 L 8.0625 -21.25 L 22.8125 -21.25 L 22.8125 -16.359375 L 8.0625 -16.359375 L 8.0625 -4.890625 L 24.625 -4.890625 L 24.625 0 L 2.8125 0 L 2.8125 -35.703125 Z M 24.625 -35.703125 "/></g></g></g><g fill="#000000" fill-opacity="1"><g transform="translate(193.263007, 204.534875)"><g><path d="M 32.28125 0 L 25.6875 0 L 14.453125 -15.40625 L 8.203125 -15.40625 L 8.203125 0 L 2.921875 0 L 2.921875 -35.703125 L 17.421875 -35.703125 C 18.835938 -35.703125 20.171875 -35.429688 21.421875 -34.890625 C 22.679688 -34.359375 23.773438 -33.640625 24.703125 -32.734375 C 25.628906 -31.828125 26.359375 -30.757812 26.890625 -29.53125 C 27.429688 -28.3125 27.703125 -26.992188 27.703125 -25.578125 C 27.703125 -24.398438 27.515625 -23.289062 27.140625 -22.25 C 26.773438 -21.21875 26.265625 -20.28125 25.609375 -19.4375 C 24.953125 -18.601562 24.171875 -17.875 23.265625 -17.25 C 22.359375 -16.625 21.367188 -16.160156 20.296875 -15.859375 Z M 17.421875 -20.34375 C 18.128906 -20.34375 18.800781 -20.484375 19.4375 -20.765625 C 20.070312 -21.054688 20.613281 -21.4375 21.0625 -21.90625 C 21.519531 -22.375 21.882812 -22.9375 22.15625 -23.59375 C 22.425781 -24.25 22.5625 -24.945312 22.5625 -25.6875 C 22.5625 -26.425781 22.425781 -27.113281 22.15625 -27.75 C 21.882812 -28.382812 21.519531 -28.945312 21.0625 -29.4375 C 20.613281 -29.925781 20.070312 -30.3125 19.4375 -30.59375 C 18.800781 -30.875 18.128906 -31.015625 17.421875 -31.015625 L 8.203125 -31.015625 L 8.203125 -20.296875 Z M 17.421875 -20.34375 "/></g></g></g><g fill="#000000" fill-opacity="1"><g transform="translate(231.827602, 204.534875)"><g><path d="M 7.09375 -15.109375 C 6.226562 -15.109375 5.492188 -15.410156 4.890625 -16.015625 C 4.285156 -16.617188 3.984375 -17.359375 3.984375 -18.234375 C 3.984375 -19.109375 4.285156 -19.851562 4.890625 -20.46875 C 5.492188 -21.09375 6.226562 -21.40625 7.09375 -21.40625 C 7.96875 -21.40625 8.710938 -21.09375 9.328125 -20.46875 C 9.953125 -19.851562 10.265625 -19.109375 10.265625 -18.234375 C 10.265625 -17.359375 9.953125 -16.617188 9.328125 -16.015625 C 8.710938 -15.410156 7.96875 -15.109375 7.09375 -15.109375 Z M 3.984375 -2.625 C 3.984375 -3.488281 4.285156 -4.234375 4.890625 -4.859375 C 5.492188 -5.484375 6.226562 -5.796875 7.09375 -5.796875 C 7.96875 -5.796875 8.707031 -5.484375 9.3125 -4.859375 C 9.914062 -4.234375 10.21875 -3.488281 10.21875 -2.625 C 10.21875 -1.75 9.914062 -1.007812 9.3125 -0.40625 C 8.707031 0.195312 7.96875 0.5 7.09375 0.5 C 6.226562 0.5 5.492188 0.195312 4.890625 -0.40625 C 4.285156 -1.007812 3.984375 -1.75 3.984375 -2.625 Z M 3.984375 -2.625 "/></g></g></g><g fill="#000000" fill-opacity="1"><g transform="translate(252.671172, 204.534875)"><g><path d="M 20.296875 -19.1875 L 33.03125 0 L 26.734375 0 L 17.171875 -14.40625 L 7.546875 0 L 1.265625 0 L 14 -19.1875 L 3.015625 -35.703125 L 9.3125 -35.703125 L 17.171875 -23.921875 L 24.984375 -35.703125 L 31.265625 -35.703125 Z M 20.296875 -19.1875 "/></g></g></g></svg>